Coordinates
version=1
nRows=19
nColumns=24
inDegrees=yes

Units are S.I. units (second, meters, Newtons, ...)
Angles are in degrees.

endheader
time	pelvis_tilt	pelvis_list	pelvis_rotation	pelvis_tx	pelvis_ty	pelvis_tz	hip_flexion_r	hip_adduction_r	hip_rotation_r	knee_angle_r	ankle_angle_r	subtalar_angle_r	mtp_angle_r	hip_flexion_l	hip_adduction_l	hip_rotation_l	knee_angle_l	ankle_angle_l	subtalar_angle_l	mtp_angle_l	lumbar_extension	lumbar_bending	lumbar_rotation
      0.91233333	      0.28415328	     -1.13789266	     -2.08100206	     -0.17294845	      0.97758666	      0.30633637	    -10.93652914	      4.71063118	     -2.77683721	    -12.31558115	     16.08527538	      0.17502146	      1.09906150	     26.22589134	      0.34001137	     -3.48019823	    -13.70282928	      1.36393626	     -4.01961539	     -3.28467700	     -2.14993312	      4.63267661	      7.63370682
      0.91650000	      0.22205480	     -1.06222084	     -2.08911866	     -0.16713994	      0.97698134	      0.30599271	    -10.86686783	      4.58356261	     -2.75628349	    -13.04254317	     16.19622365	      0.12920913	      1.14103371	     26.13151550	      0.51372376	     -3.38603273	    -13.69250984	      1.10558680	     -4.16663507	     -3.03461930	     -2.05046855	      4.54856403	      7.67371979
      0.92066667	      0.18999449	     -0.97387334	     -2.09318175	     -0.16125231	      0.97648156	      0.30568715	    -10.82826511	      4.44916435	     -2.70635958	    -13.77053091	     16.21342778	     -0.01138409	      1.15546230	     25.99906787	      0.68790818	     -3.35326024	    -13.74149602	      0.87587961	     -4.15670008	     -2.96503587	     -1.94901675	      4.43062110	      7.66564921
      0.92483333	      0.06900798	     -0.88970543	     -2.10655236	     -0.15542416	      0.97590664	      0.30533668	    -10.63233947	      4.31782386	     -2.60640815	    -14.62113234	     16.36075765	     -0.12722393	      1.20706758	     25.94808459	      0.87496795	     -3.16726800	    -13.80787315	      0.55592683	     -4.41152040	     -2.78187638	     -1.76927995	      4.35226551	      7.69627839
      0.92900000	     -0.01415803	     -0.79851499	     -2.09771672	     -0.14957046	      0.97542041	      0.30496358	    -10.45493215	      4.17719712	     -2.56462569	    -15.50475625	     16.35999333	     -0.24135270	      1.30863840	     25.87576361	      1.07403529	     -2.99927971	    -13.96250912	      0.21819083	     -4.73593398	     -2.46244363	     -1.63358609	      4.24968147	      7.71905347
      0.93316667	     -0.10930761	     -0.70666393	     -2.08595096	     -0.14369375	      0.97496694	      0.30459210	    -10.23564261	      4.03845241	     -2.50071913	    -16.44249635	     16.33420632	     -0.39616194	      1.45480588	     25.81157356	      1.26984781	     -2.83291807	    -14.15126525	     -0.10623002	     -5.00166410	     -2.08879155	     -1.47447984	      4.14274574	      7.71387542
      0.93733333	     -0.17726693	     -0.58424367	     -2.08974896	     -0.13776320	      0.97464098	      0.30425429	    -10.01694927	      3.86416732	     -2.41266858	    -17.43441076	     16.28673700	     -0.57398523	      1.55371373	     25.68616824	      1.48573797	     -2.68830782	    -14.31616968	     -0.44345443	     -5.19053550	     -1.88661142	     -1.32798804	      3.99788961	      7.69092622
      0.94150000	     -0.27892846	     -0.48222174	     -2.06614899	     -0.13188819	      0.97428070	      0.30386203	     -9.71727350	      3.71412145	     -2.35556352	    -18.49787976	     16.16298402	     -0.73931962	      1.70892110	     25.63114522	      1.69588330	     -2.48598296	    -14.57172442	     -0.78772263	     -5.55176765	     -1.62702869	     -1.16128900	      3.87699003	      7.66824772
      0.94566667	     -0.33411620	     -0.34439175	     -2.03650422	     -0.12594353	      0.97403325	      0.30344236	     -9.43861616	      3.50920589	     -2.36877578	    -19.60145506	     15.88479746	     -0.83444003	      4.40177924	     25.51636661	      1.93766698	     -2.34016943	    -14.83250533	     -1.17085571	     -5.89153302	      2.02696771	     -1.04233582	      3.71188076	      7.62251189
      0.94983333	     -0.41512566	     -0.22291344	     -2.01056894	     -0.12003761	      0.97381831	      0.30306084	     -9.09373504	      3.33820430	     -2.29775449	    -20.77671288	     15.66623184	     -1.07808753	      4.44396114	     25.42880314	      2.15858638	     -2.16276379	    -15.11665934	     -1.47116944	     -6.18831131	      2.02878411	     -0.89274093	      3.56300250	      7.58269136
      0.95400000	     -0.50821817	     -0.09339917	     -1.97050449	     -0.11415126	      0.97361927	      0.30262816	     -8.68958997	      3.15078923	     -2.27020552	    -22.02451164	     15.36292879	     -1.24097997	      4.54408640	     25.36531162	      2.39577418	     -1.96363335	    -15.43574061	     -1.76583643	     -6.58519597	      2.04205579	     -0.74042522	      3.41308377	      7.52925996
      0.95816667	     -0.57818159	      0.05298178	     -1.92285209	     -0.10825733	      0.97348995	      0.30217639	     -8.26686749	      2.93552473	     -2.28475047	    -23.33921202	     14.98671259	     -1.35466186	      4.71264761	     25.27432430	      2.65071532	     -1.77187149	    -15.76491295	     -2.02769921	     -6.98073978	      2.06544270	     -0.60454680	      3.23348479	      7.45689877
      0.96233333	     -0.65506503	      0.20855549	     -1.87108189	     -0.10237426	      0.97339387	      0.30171055	     -7.79367211	      2.70507450	     -2.31401592	    -24.71822351	     14.52697326	     -1.45544089	      4.94382645	     25.19153360	      2.91324628	     -1.58404504	    -16.10588750	     -2.24843919	     -7.35175056	      2.09294681	     -0.46498518	      3.04629582	      7.37452624
      0.96650000	     -0.71142129	      0.38796210	     -1.81334233	     -0.09649434	      0.97337018	      0.30122214	     -7.29886649	      2.43680949	     -2.38060857	    -26.16182526	     13.98611389	     -1.50908069	      5.27581187	     25.07926060	      3.20283197	     -1.39214257	    -16.44042898	     -2.43985738	     -7.75392062	      2.12346808	     -0.34926024	      2.83073810	      7.28018360
      0.97066667	     -0.78194060	      0.56754063	     -1.74929818	     -0.09063580	      0.97335371	      0.30072042	     -6.74654702	      2.16334248	     -2.45706803	    -27.66269555	     13.35152865	     -1.54888582	      5.70568776	     24.99202530	      3.49043483	     -1.21250935	    -16.80333803	     -2.56610683	     -8.12168144	      2.15271461	     -0.21923037	      2.61409852	      7.17491448
      0.97483333	     -0.75269439	      0.78895033	     -1.65127082	     -0.08471702	      0.97351437	      0.30013433	     -6.28636572	      1.81258645	     -2.66098564	    -29.15746258	     12.42343657	     -1.52994995	     11.42879869	     24.76843088	      3.83967634	     -1.00140953	    -17.12297765	     -2.58470597	     -8.41895134	      2.39273977	     -0.19835880	      2.35001148	      7.07724631
      0.97900000	     -0.81194406	      1.00394757	     -1.61215101	     -0.07889252	      0.97360122	      0.29967835	     -5.65680373	      1.48980506	     -2.70119486	    -30.78541342	     11.66888490	     -1.69320609	     11.49236244	     24.65535981	      4.13848897	     -0.91115209	    -17.46777457	     -2.62345250	     -8.66000341	      2.38785361	     -0.07843437	      2.09770399	      6.95961874
      0.98316667	     -0.83085441	      1.23519675	     -1.52829249	     -0.07308738	      0.97374594	      0.29912813	     -5.04555278	      1.12863045	     -2.84152632	    -32.43288104	     10.75622832	     -1.66416205	     11.64642522	     24.50511215	      4.48152942	     -0.75035204	    -17.83138921	     -2.60001087	     -9.00358080	      2.37408633	     -0.02188332	      1.81072046	      6.82925093
      0.98733333	     -0.84204397	      1.48200646	     -1.44585190	     -0.06729312	      0.97393267	      0.29857036	     -4.40666929	      0.73801545	     -2.99444137	    -34.12160934	      9.75072698	     -1.62201533	     11.87095724	     24.33040299	      4.83746424	     -0.60011764	    -18.16810923	     -2.50957380	     -9.28123617	      2.35179953	      0.02944996	      1.51488394	      6.69437047
